<?xml version="1.0" encoding="UTF-8"?>
<svg xmlns="http://www.w3.org/2000/svg" version="1.1" viewBox="0 0 248.3 70.1">
  <defs>
    <style>
      .cls-1 {
        stroke: #6c56a4;
      }

      .cls-1, .cls-2, .cls-3 {
        stroke-miterlimit: 10;
      }

      .cls-1, .cls-4 {
        fill: #6c56a4;
      }

      .cls-2 {
        fill: none;
        stroke: #fff;
      }

      .cls-4, .cls-5, .cls-6 {
        stroke-width: 0px;
      }

      .cls-5 {
        fill: #231f20;
      }

      .cls-3 {
        stroke: #231f20;
        stroke-width: .5px;
      }

      .cls-3, .cls-6 {
        fill: #fff;
      }

      .cls-7 {
        display: none;
      }
    </style>
  </defs>
  <g id="Layer_1" data-name="Layer 1" class="cls-7">
    <g>
      <path class="cls-5" d="M21.7,55.4V11.8h9.3v3.6h-5.3v36.4h5.3v3.6h-9.3Z"/>
      <path class="cls-5" d="M48.4,59.3c-2,0-3.8-.3-5.2-.8s-2.7-1.2-3.7-2.1-1.7-1.8-2.2-2.9l4.3-2c.3.5.7,1,1.3,1.6s1.2,1,2.1,1.4,2,.6,3.4.6c2,0,3.6-.5,4.9-1.4s1.9-2.4,1.9-4.4v-5.1h-.4c-.3.6-.7,1.2-1.3,1.9s-1.3,1.3-2.3,1.7-2.3.7-3.9.7-3.9-.5-5.6-1.5-3-2.4-3.9-4.3-1.5-4.2-1.5-7,.5-5.2,1.4-7.2,2.3-3.5,3.9-4.6,3.5-1.6,5.6-1.6,2.9.3,3.9.8,1.8,1.2,2.4,1.9,1,1.4,1.3,1.9h.4v-4.3h5v26.6c0,2.3-.5,4.2-1.6,5.7s-2.5,2.6-4.2,3.3-3.8,1.1-6.1,1.1ZM48.3,44.2c1.5,0,2.7-.3,3.7-1s1.8-1.7,2.3-3,.8-2.8.8-4.6-.3-3.3-.8-4.6-1.3-2.4-2.3-3.1-2.2-1.1-3.7-1.1-2.8.4-3.8,1.2-1.8,1.9-2.3,3.2-.8,2.8-.8,4.5.3,3.2.8,4.5,1.3,2.3,2.3,3,2.3,1.1,3.8,1.1Z"/>
      <path class="cls-5" d="M67.2,48.9v-26.2h5v4.2h.3c.5-1.4,1.3-2.6,2.5-3.4s2.6-1.2,4.1-1.2.7,0,1.1,0,.8,0,1.1.1v4.9c-.2,0-.5-.1-1.1-.2s-1.1,0-1.6,0c-1.2,0-2.3.2-3.2.8s-1.7,1.2-2.2,2.1-.8,1.9-.8,3.1v15.9h-5.2Z"/>
      <path class="cls-5" d="M92.8,49.5c-1.7,0-3.2-.3-4.5-.9s-2.4-1.5-3.2-2.7-1.2-2.6-1.2-4.4.3-2.7.9-3.7,1.3-1.7,2.3-2.3,2.1-1,3.3-1.3,2.4-.5,3.6-.6c1.5-.2,2.8-.3,3.8-.5s1.7-.3,2.1-.6.7-.7.7-1.3h0c0-1.1-.2-2-.6-2.6s-.9-1.2-1.7-1.6-1.7-.6-2.8-.6-2.1.2-2.9.5-1.5.8-2,1.3-.9,1.1-1.1,1.7l-4.9-1.3c.6-1.6,1.4-2.8,2.6-3.8s2.4-1.6,3.8-2.1,2.9-.7,4.5-.7,2.2.1,3.4.4,2.3.7,3.4,1.4,1.9,1.6,2.6,2.8,1,2.7,1,4.6v17.4h-5v-3.6h-.3c-.3.7-.9,1.3-1.5,2s-1.5,1.2-2.5,1.6-2.2.6-3.7.6ZM102,13.8v3.7h-13.2v-3.7h13.2ZM94,45.3c1.4,0,2.6-.3,3.6-.8s1.8-1.3,2.3-2.2.8-1.9.8-2.9v-3.4c-.2.2-.5.4-1.1.5s-1.1.3-1.8.4-1.3.2-1.9.3-1.1.1-1.5.2c-1,.1-1.9.3-2.7.6s-1.4.7-1.9,1.3-.7,1.3-.7,2.2.2,1.5.6,2.1,1,1,1.7,1.3,1.6.4,2.6.4Z"/>
      <path class="cls-5" d="M112.8,48.9v-26.2h4.9v6.1c.1,0-.3,0-.3,0,.4-1.5,1-2.7,1.7-3.7s1.7-1.7,2.7-2.1,2.1-.7,3.3-.7c1.9,0,3.4.6,4.6,1.8s2,2.8,2.4,4.9h-.7c.3-1.4.9-2.7,1.8-3.7s1.9-1.8,3.1-2.3,2.5-.8,3.8-.8,2.9.3,4.2,1,2.3,1.7,3,3,1.1,3,1.1,5v17.7h-5.2v-17.2c0-1.8-.5-3-1.5-3.8s-2.1-1.2-3.5-1.2-2,.2-2.8.7-1.4,1.1-1.8,1.9-.6,1.7-.6,2.8v16.8h-5.1v-17.5c0-1.4-.4-2.5-1.3-3.4s-2-1.3-3.4-1.3-1.8.2-2.7.7-1.5,1.1-2,2-.7,1.9-.7,3.2v16.3h-5.2Z"/>
      <path class="cls-5" d="M162.7,49.5c-1.7,0-3.2-.3-4.5-.9s-2.4-1.5-3.2-2.7-1.2-2.6-1.2-4.4.3-2.7.9-3.7,1.3-1.7,2.3-2.3,2.1-1,3.3-1.3,2.4-.5,3.6-.6c1.5-.2,2.8-.3,3.8-.5s1.7-.3,2.1-.6.7-.7.7-1.3h0c0-1.1-.2-2-.6-2.6s-.9-1.2-1.7-1.6-1.7-.6-2.8-.6-2.1.2-2.9.5-1.5.8-2,1.3-.9,1.1-1.1,1.7l-4.9-1.3c.6-1.6,1.4-2.8,2.6-3.8s2.4-1.6,3.8-2.1,2.9-.7,4.5-.7,2.2.1,3.4.4,2.3.7,3.4,1.4,1.9,1.6,2.6,2.8,1,2.7,1,4.6v17.4h-5v-3.6h-.3c-.3.7-.9,1.3-1.5,2s-1.5,1.2-2.5,1.6-2.2.6-3.7.6ZM163.9,45.3c1.4,0,2.6-.3,3.6-.8s1.8-1.3,2.3-2.2.8-1.9.8-2.9v-3.4c-.2.2-.5.4-1.1.5s-1.1.3-1.8.4-1.3.2-1.9.3-1.1.1-1.5.2c-1,.1-1.9.3-2.7.6s-1.4.7-1.9,1.3-.7,1.3-.7,2.2.2,1.5.6,2.1,1,1,1.7,1.3,1.6.4,2.6.4Z"/>
      <path class="cls-5" d="M193.9,22.7v4.2h-14.2v-4.2h14.2ZM183.5,16.5h5.2v25.4c0,1,.2,1.8.7,2.3s1.2.7,2.2.7.6,0,1.1,0,.8-.1,1.1-.2l.9,4.1c-.5.2-1.1.3-1.8.4s-1.2.1-1.9.1c-2.4,0-4.2-.6-5.5-1.8s-2-2.9-2-5.2v-25.8Z"/>
      <path class="cls-5" d="M199,48.9v-26.2h5v4.2h.3c.5-1.4,1.3-2.6,2.5-3.4s2.6-1.2,4.1-1.2.7,0,1.1,0,.8,0,1.1.1v4.9c-.2,0-.5-.1-1.1-.2s-1.1,0-1.6,0c-1.2,0-2.3.2-3.2.8s-1.7,1.2-2.2,2.1-.8,1.9-.8,3.1v15.9h-5.2Z"/>
      <path class="cls-5" d="M217,55.4v-3.6h5.3V15.4h-5.3v-3.6h9.3v43.6h-9.3Z"/>
    </g>
  </g>
  <g id="black" class="cls-7">
    <g>
      <path class="cls-5" d="M19.5,55.4V11.8h9.3v3.6h-5.3v36.4h5.3v3.6h-9.3Z"/>
      <path class="cls-5" d="M46.1,59.2c-2,0-3.8-.3-5.2-.8s-2.7-1.2-3.7-2.1-1.7-1.8-2.2-2.9l4.3-2c.3.5.7,1,1.3,1.6s1.2,1,2.1,1.4,2,.6,3.4.6c2,0,3.6-.5,4.9-1.4s1.9-2.4,1.9-4.4v-5.1h-.4c-.3.6-.7,1.2-1.3,1.9s-1.3,1.3-2.3,1.7-2.3.7-3.9.7-3.9-.5-5.6-1.5-3-2.4-3.9-4.3-1.5-4.2-1.5-7,.5-5.2,1.4-7.2,2.3-3.5,3.9-4.6,3.5-1.6,5.6-1.6,2.9.3,3.9.8,1.8,1.2,2.4,1.9,1,1.4,1.3,1.9h.4v-4.3h5v26.6c0,2.3-.5,4.2-1.6,5.7s-2.5,2.6-4.2,3.3-3.8,1.1-6.1,1.1ZM46.1,44.1c1.5,0,2.7-.3,3.7-1s1.8-1.7,2.3-3,.8-2.8.8-4.6-.3-3.3-.8-4.6-1.3-2.4-2.3-3.1-2.2-1.1-3.7-1.1-2.8.4-3.8,1.2-1.8,1.9-2.3,3.2-.8,2.8-.8,4.5.3,3.2.8,4.5,1.3,2.3,2.3,3,2.3,1.1,3.8,1.1Z"/>
      <path class="cls-5" d="M64.9,48.8v-26.2h5v4.2h.3c.5-1.4,1.3-2.6,2.5-3.4s2.6-1.2,4.1-1.2.7,0,1.1,0,.8,0,1.1.1v4.9c-.2,0-.5-.1-1.1-.2s-1.1,0-1.6,0c-1.2,0-2.3.2-3.2.8s-1.7,1.2-2.2,2.1-.8,1.9-.8,3.1v15.9h-5.2Z"/>
      <path class="cls-5" d="M90.6,49.4c-1.7,0-3.2-.3-4.5-.9s-2.4-1.5-3.2-2.7-1.2-2.6-1.2-4.4.3-2.7.9-3.7,1.3-1.7,2.3-2.3,2.1-1,3.3-1.3,2.4-.5,3.6-.6c1.5-.2,2.8-.3,3.8-.5s1.7-.3,2.1-.6.7-.7.7-1.3h0c0-1.1-.2-2-.6-2.6s-.9-1.2-1.7-1.6-1.7-.6-2.8-.6-2.1.2-2.9.5-1.5.8-2,1.3-.9,1.1-1.1,1.7l-4.9-1.3c.6-1.6,1.4-2.8,2.6-3.8s2.4-1.6,3.8-2.1,2.9-.7,4.5-.7,2.2.1,3.4.4,2.3.7,3.4,1.4,1.9,1.6,2.6,2.8,1,2.7,1,4.6v17.4h-5v-3.6h-.3c-.3.7-.9,1.3-1.5,2s-1.5,1.2-2.5,1.6-2.2.6-3.7.6ZM99.7,13.7v3.7h-13.2v-3.7h13.2ZM91.7,45.3c1.4,0,2.6-.3,3.6-.8s1.8-1.3,2.3-2.2.8-1.9.8-2.9v-3.4c-.2.2-.5.4-1.1.5s-1.1.3-1.8.4-1.3.2-1.9.3-1.1.1-1.5.2c-1,.1-1.9.3-2.7.6s-1.4.7-1.9,1.3-.7,1.3-.7,2.2.2,1.5.6,2.1,1,1,1.7,1.3,1.6.4,2.6.4Z"/>
      <path class="cls-5" d="M110.5,48.8v-26.2h4.9v6.1c.1,0-.3,0-.3,0,.4-1.5,1-2.7,1.7-3.7s1.7-1.7,2.7-2.1,2.1-.7,3.3-.7c1.9,0,3.4.6,4.6,1.8s2,2.8,2.4,4.9h-.7c.3-1.4.9-2.7,1.8-3.7s1.9-1.8,3.1-2.3,2.5-.8,3.8-.8,2.9.3,4.2,1,2.3,1.7,3,3,1.1,3,1.1,5v17.7h-5.2v-17.2c0-1.8-.5-3-1.5-3.8s-2.1-1.2-3.5-1.2-2,.2-2.8.7-1.4,1.1-1.8,1.9-.6,1.7-.6,2.8v16.8h-5.1v-17.5c0-1.4-.4-2.5-1.3-3.4s-2-1.3-3.4-1.3-1.8.2-2.7.7-1.5,1.1-2,2-.7,1.9-.7,3.2v16.3h-5.2Z"/>
      <path class="cls-5" d="M160.5,49.4c-1.7,0-3.2-.3-4.5-.9s-2.4-1.5-3.2-2.7-1.2-2.6-1.2-4.4.3-2.7.9-3.7,1.3-1.7,2.3-2.3,2.1-1,3.3-1.3,2.4-.5,3.6-.6c1.5-.2,2.8-.3,3.8-.5s1.7-.3,2.1-.6.7-.7.7-1.3h0c0-1.1-.2-2-.6-2.6s-.9-1.2-1.7-1.6-1.7-.6-2.8-.6-2.1.2-2.9.5-1.5.8-2,1.3-.9,1.1-1.1,1.7l-4.9-1.3c.6-1.6,1.4-2.8,2.6-3.8s2.4-1.6,3.8-2.1,2.9-.7,4.5-.7,2.2.1,3.4.4,2.3.7,3.4,1.4,1.9,1.6,2.6,2.8,1,2.7,1,4.6v17.4h-5v-3.6h-.3c-.3.7-.9,1.3-1.5,2s-1.5,1.2-2.5,1.6-2.2.6-3.7.6ZM161.6,45.3c1.4,0,2.6-.3,3.6-.8s1.8-1.3,2.3-2.2.8-1.9.8-2.9v-3.4c-.2.2-.5.4-1.1.5s-1.1.3-1.8.4-1.3.2-1.9.3-1.1.1-1.5.2c-1,.1-1.9.3-2.7.6s-1.4.7-1.9,1.3-.7,1.3-.7,2.2.2,1.5.6,2.1,1,1,1.7,1.3,1.6.4,2.6.4Z"/>
      <path class="cls-5" d="M191.6,22.6v4.2h-14.2v-4.2h14.2ZM181.2,16.4h5.2v25.4c0,1,.2,1.8.7,2.3s1.2.7,2.2.7.6,0,1.1,0,.8-.1,1.1-.2l.9,4.1c-.5.2-1.1.3-1.8.4s-1.2.1-1.9.1c-2.4,0-4.2-.6-5.5-1.8s-2-2.9-2-5.2v-25.8Z"/>
      <path class="cls-5" d="M196.7,48.8v-26.2h5v4.2h.3c.5-1.4,1.3-2.6,2.5-3.4s2.6-1.2,4.1-1.2.7,0,1.1,0,.8,0,1.1.1v4.9c-.2,0-.5-.1-1.1-.2s-1.1,0-1.6,0c-1.2,0-2.3.2-3.2.8s-1.7,1.2-2.2,2.1-.8,1.9-.8,3.1v15.9h-5.2Z"/>
      <path class="cls-5" d="M214.7,55.4v-3.6h5.3V15.4h-5.3v-3.6h9.3v43.6h-9.3Z"/>
    </g>
  </g>
  <g id="white" class="cls-7">
    <g>
      <path class="cls-6" d="M19.5,55.4V11.8h9.3v3.6h-5.3v36.4h5.3v3.6h-9.3Z"/>
      <path class="cls-6" d="M46.1,59.2c-2,0-3.8-.3-5.2-.8s-2.7-1.2-3.7-2.1-1.7-1.8-2.2-2.9l4.3-2c.3.5.7,1,1.3,1.6s1.2,1,2.1,1.4,2,.6,3.4.6c2,0,3.6-.5,4.9-1.4s1.9-2.4,1.9-4.4v-5.1h-.4c-.3.6-.7,1.2-1.3,1.9s-1.3,1.3-2.3,1.7-2.3.7-3.9.7-3.9-.5-5.6-1.5-3-2.4-3.9-4.3-1.5-4.2-1.5-7,.5-5.2,1.4-7.2,2.3-3.5,3.9-4.6,3.5-1.6,5.6-1.6,2.9.3,3.9.8,1.8,1.2,2.4,1.9,1,1.4,1.3,1.9h.4v-4.3h5v26.6c0,2.3-.5,4.2-1.6,5.7s-2.5,2.6-4.2,3.3-3.8,1.1-6.1,1.1ZM46.1,44.1c1.5,0,2.7-.3,3.7-1s1.8-1.7,2.3-3,.8-2.8.8-4.6-.3-3.3-.8-4.6-1.3-2.4-2.3-3.1-2.2-1.1-3.7-1.1-2.8.4-3.8,1.2-1.8,1.9-2.3,3.2-.8,2.8-.8,4.5.3,3.2.8,4.5,1.3,2.3,2.3,3,2.3,1.1,3.8,1.1Z"/>
      <path class="cls-6" d="M64.9,48.8v-26.2h5v4.2h.3c.5-1.4,1.3-2.6,2.5-3.4s2.6-1.2,4.1-1.2.7,0,1.1,0,.8,0,1.1.1v4.9c-.2,0-.5-.1-1.1-.2s-1.1,0-1.6,0c-1.2,0-2.3.2-3.2.8s-1.7,1.2-2.2,2.1-.8,1.9-.8,3.1v15.9h-5.2Z"/>
      <path class="cls-6" d="M90.6,49.4c-1.7,0-3.2-.3-4.5-.9s-2.4-1.5-3.2-2.7-1.2-2.6-1.2-4.4.3-2.7.9-3.7,1.3-1.7,2.3-2.3,2.1-1,3.3-1.3,2.4-.5,3.6-.6c1.5-.2,2.8-.3,3.8-.5s1.7-.3,2.1-.6.7-.7.7-1.3h0c0-1.1-.2-2-.6-2.6s-.9-1.2-1.7-1.6-1.7-.6-2.8-.6-2.1.2-2.9.5-1.5.8-2,1.3-.9,1.1-1.1,1.7l-4.9-1.3c.6-1.6,1.4-2.8,2.6-3.8s2.4-1.6,3.8-2.1,2.9-.7,4.5-.7,2.2.1,3.4.4,2.3.7,3.4,1.4,1.9,1.6,2.6,2.8,1,2.7,1,4.6v17.4h-5v-3.6h-.3c-.3.7-.9,1.3-1.5,2s-1.5,1.2-2.5,1.6-2.2.6-3.7.6ZM99.7,13.7v3.7h-13.2v-3.7h13.2ZM91.7,45.3c1.4,0,2.6-.3,3.6-.8s1.8-1.3,2.3-2.2.8-1.9.8-2.9v-3.4c-.2.2-.5.4-1.1.5s-1.1.3-1.8.4-1.3.2-1.9.3-1.1.1-1.5.2c-1,.1-1.9.3-2.7.6s-1.4.7-1.9,1.3-.7,1.3-.7,2.2.2,1.5.6,2.1,1,1,1.7,1.3,1.6.4,2.6.4Z"/>
      <path class="cls-6" d="M110.5,48.8v-26.2h4.9v6.1c.1,0-.3,0-.3,0,.4-1.5,1-2.7,1.7-3.7s1.7-1.7,2.7-2.1,2.1-.7,3.3-.7c1.9,0,3.4.6,4.6,1.8s2,2.8,2.4,4.9h-.7c.3-1.4.9-2.7,1.8-3.7s1.9-1.8,3.1-2.3,2.5-.8,3.8-.8,2.9.3,4.2,1,2.3,1.7,3,3,1.1,3,1.1,5v17.7h-5.2v-17.2c0-1.8-.5-3-1.5-3.8s-2.1-1.2-3.5-1.2-2,.2-2.8.7-1.4,1.1-1.8,1.9-.6,1.7-.6,2.8v16.8h-5.1v-17.5c0-1.4-.4-2.5-1.3-3.4s-2-1.3-3.4-1.3-1.8.2-2.7.7-1.5,1.1-2,2-.7,1.9-.7,3.2v16.3h-5.2Z"/>
      <path class="cls-6" d="M160.5,49.4c-1.7,0-3.2-.3-4.5-.9s-2.4-1.5-3.2-2.7-1.2-2.6-1.2-4.4.3-2.7.9-3.7,1.3-1.7,2.3-2.3,2.1-1,3.3-1.3,2.4-.5,3.6-.6c1.5-.2,2.8-.3,3.8-.5s1.7-.3,2.1-.6.7-.7.7-1.3h0c0-1.1-.2-2-.6-2.6s-.9-1.2-1.7-1.6-1.7-.6-2.8-.6-2.1.2-2.9.5-1.5.8-2,1.3-.9,1.1-1.1,1.7l-4.9-1.3c.6-1.6,1.4-2.8,2.6-3.8s2.4-1.6,3.8-2.1,2.9-.7,4.5-.7,2.2.1,3.4.4,2.3.7,3.4,1.4,1.9,1.6,2.6,2.8,1,2.7,1,4.6v17.4h-5v-3.6h-.3c-.3.7-.9,1.3-1.5,2s-1.5,1.2-2.5,1.6-2.2.6-3.7.6ZM161.6,45.3c1.4,0,2.6-.3,3.6-.8s1.8-1.3,2.3-2.2.8-1.9.8-2.9v-3.4c-.2.2-.5.4-1.1.5s-1.1.3-1.8.4-1.3.2-1.9.3-1.1.1-1.5.2c-1,.1-1.9.3-2.7.6s-1.4.7-1.9,1.3-.7,1.3-.7,2.2.2,1.5.6,2.1,1,1,1.7,1.3,1.6.4,2.6.4Z"/>
      <path class="cls-6" d="M191.6,22.6v4.2h-14.2v-4.2h14.2ZM181.2,16.4h5.2v25.4c0,1,.2,1.8.7,2.3s1.2.7,2.2.7.6,0,1.1,0,.8-.1,1.1-.2l.9,4.1c-.5.2-1.1.3-1.8.4s-1.2.1-1.9.1c-2.4,0-4.2-.6-5.5-1.8s-2-2.9-2-5.2v-25.8Z"/>
      <path class="cls-6" d="M196.7,48.8v-26.2h5v4.2h.3c.5-1.4,1.3-2.6,2.5-3.4s2.6-1.2,4.1-1.2.7,0,1.1,0,.8,0,1.1.1v4.9c-.2,0-.5-.1-1.1-.2s-1.1,0-1.6,0c-1.2,0-2.3.2-3.2.8s-1.7,1.2-2.2,2.1-.8,1.9-.8,3.1v15.9h-5.2Z"/>
      <path class="cls-6" d="M214.7,55.4v-3.6h5.3V15.4h-5.3v-3.6h9.3v43.6h-9.3Z"/>
    </g>
  </g>
  <g id="favicon" class="cls-7">
    <rect class="cls-1" x="82.8" y="-8.8" width="87.6" height="87.6"/>
    <g>
      <path class="cls-2" d="M92.1,55.4V11.8h9.3v3.6h-5.3v36.4h5.3v3.6h-9.3Z"/>
      <path class="cls-2" d="M150.7,55.4v-3.6h5.3V15.4h-5.3v-3.6h9.3v43.6h-9.3Z"/>
    </g>
    <path id="intelligence" class="cls-6" d="M147.3,34.7c0-2.3-1.3-4.3-3.2-5.4,0-.3,0-.6,0-.9,0-2.3-1.3-4.3-3.2-5.4,0-.3,0-.6,0-.9,0-2.4-1.4-4.8-3.2-5.9-.4-2.8-3-4.9-6-4.9s-4.5,1.5-5.5,3.6c-1-2.1-3.1-3.6-5.5-3.6s-5.7,2.4-6,5.5c-2,1.1-3.2,3.1-3.2,5.3s0,.6,0,.9c-2,1-3.2,3.1-3.2,5.4s0,.6,0,.9c-2,1-3.2,3.1-3.2,5.4s.5,2.7,1.4,3.8c-.4.8-.6,1.6-.6,2.5,0,2.5,1.6,4.8,4,5.7,0,.2,0,.4,0,.6,0,2.9,2.1,5.4,4.9,5.9.6,2.8,3,4.9,5.9,4.9s4.5-1.5,5.5-3.6c.3.6.6,1.1,1.1,1.6,0,0,0,.1,0,.2,0,0,.1,0,.2,0,1.1,1,2.5,1.7,4.2,1.7,2.9,0,5.4-2.1,5.9-4.9,2.8-.6,4.9-3,4.9-5.9s0-.4,0-.6c2.4-.9,4-3.1,4-5.7s-.2-1.7-.6-2.5c.9-1.1,1.4-2.4,1.4-3.8ZM122.1,56.7v-2.8c0-1.9-1.4-3.2-3.2-4.7-.2-.2-.6-.2-.8,0-.2.2-.2.6,0,.8,1.8,1.5,2.8,2.6,2.8,3.8v3c0,0-.1,0-.2,0-2.5,0-4.6-1.9-4.9-4.3v-.4c0,0-.5,0-.5,0-2.5-.3-4.3-2.4-4.3-4.9s0-.4,0-.6l2.7-1.2c.3-.1.4-.5.3-.7-.1-.3-.5-.4-.7-.3l-2.8,1.3c-2-.7-3.5-2.5-3.5-4.7s.2-1.2.4-1.8h4.5c.3,0,.6-.3.6-.6s-.3-.6-.6-.6h-4.4c-.8-1-1.3-2.1-1.3-3.4,0-2,1.2-3.7,3-4.5l.4-.2v-.5c-.2-.4-.2-.8-.2-1.1,0-1.8,1-3.5,2.6-4.3l2.7,3.4c.5.6.9,1.1,1.4,1.5l-3,3c-.2.2-.2.6,0,.8.1.1.3.2.4.2s.3,0,.4-.2l3.1-3.1s0,0,0,0c.3.1.7.2,1.2.2h3.1c.3,0,.6-.3.6-.6s-.3-.6-.6-.6h-3.1c-1,0-1.6-.5-2.7-1.8l-2.9-3.7c0-.4-.1-.7-.1-1,0-1.8,1-3.4,2.5-4.3l1.3,1c.1,0,.2.1.4.1s.3,0,.4-.2c.2-.2.2-.6,0-.8l-1.3-1.1c.2-2.5,2.3-4.5,4.9-4.5s4.9,2.2,4.9,4.9v6.6c-.9-1.1-2.3-1.6-4.2-1.6s-.6.3-.6.6.3.6.6.6c2.9,0,4.2,1.3,4.2,4.2v7.3c-1.2.1-1.8.6-2.4,1-.7.5-1.3,1-3.2.6-.3,0-.6.1-.7.4,0,.3.1.6.4.7.6.1,1.1.2,1.5.2,1.3,0,2-.5,2.6-.9.5-.4.9-.7,1.7-.8v8.3h-3.4c-1.6,0-2.8-.9-3.4-2.7,0-.3-.4-.5-.7-.4-.3,0-.5.4-.4.7,1,3.1,3.2,3.5,4.5,3.5h3.4s0,6.5,0,6.5c0,2.3-1.5,4.1-3.6,4.7ZM142.2,45.5c-1-2-2.5-2.8-5-2.8h-1.6c-1.9,0-2.5-.6-2.5-2.6s-.3-.6-.6-.6-.6.3-.6.6c0,2.6,1.1,3.7,3.6,3.7h1.6s0,0,.1,0c2.2,0,3.3.7,4,2.5,0,.3,0,.6,0,.9,0,2.2-1.5,4.1-3.6,4.7-.1-1.7-.7-3-1.7-3.9-.2-.2-.6-.2-.8,0-.2.2-.2.6,0,.8.9.8,1.3,1.9,1.4,3.4v.3c-.4,2.5-2.5,4.3-4.9,4.3s-2.2-.4-3.1-1.1l2.7-2.7c.2-.2.2-.6,0-.8s-.6-.2-.8,0l-2.7,2.7c-.7-.8-1.1-1.9-1.1-3.1v-.8c0-2.5.8-2.6,4.2-2.6s.6-.3.6-.6-.3-.6-.6-.6c-1.8,0-3.2,0-4.2.7v-12.2c2.3,0,3-.5,3.7-1,.5-.3.8-.6,2.1-.6s.6-.3.6-.6-.3-.6-.6-.6c-1.6,0-2.2.4-2.7.8-.5.4-1.1.7-3,.8v-13.1c.9,1.1,2.3,1.6,4.2,1.6s.6-.3.6-.6-.3-.6-.6-.6c-2.9,0-4.2-1.3-4.2-4.2v-.8c0-2.7,2.2-4.9,4.9-4.9s4.3,1.5,4.8,3.6h-4c-.3,0-.6.3-.6.6s.3.6.6.6h4.5c1.6.8,2.8,2.9,2.8,4.9s0,.6-.1,1c-1.5,1.3-2.7,2.5-3,4h-4.2c-.3,0-.6.3-.6.6s.3.6.6.6h4.2v4.2c0,.3.3.6.6.6s.6-.3.6-.6v-4.7c0-1.2.9-2.2,2.5-3.6,1.6.9,2.7,2.5,2.7,4.4s0,.7-.1,1.1v.5c-.1,0,.3.2.3.2,1.8.8,3,2.6,3,4.5s-.5,2.4-1.3,3.3h0s-4.4,0-4.4,0c-.3,0-.6.3-.6.6s.3.6.6.6h4.5c.2.6.4,1.2.4,1.8,0,2-1.3,3.9-3.2,4.6Z"/>
  </g>
  <g id="black-outline" class="cls-7">
    <g>
      <path class="cls-3" d="M19.5,55.4V11.8h9.3v3.6h-5.3v36.4h5.3v3.6h-9.3Z"/>
      <path class="cls-5" d="M46.1,59.2c-2,0-3.8-.3-5.2-.8s-2.7-1.2-3.7-2.1-1.7-1.8-2.2-2.9l4.3-2c.3.5.7,1,1.3,1.6s1.2,1,2.1,1.4,2,.6,3.4.6c2,0,3.6-.5,4.9-1.4s1.9-2.4,1.9-4.4v-5.1h-.4c-.3.6-.7,1.2-1.3,1.9s-1.3,1.3-2.3,1.7-2.3.7-3.9.7-3.9-.5-5.6-1.5-3-2.4-3.9-4.3-1.5-4.2-1.5-7,.5-5.2,1.4-7.2,2.3-3.5,3.9-4.6,3.5-1.6,5.6-1.6,2.9.3,3.9.8,1.8,1.2,2.4,1.9,1,1.4,1.3,1.9h.4v-4.3h5v26.6c0,2.3-.5,4.2-1.6,5.7s-2.5,2.6-4.2,3.3-3.8,1.1-6.1,1.1ZM46.1,44.1c1.5,0,2.7-.3,3.7-1s1.8-1.7,2.3-3,.8-2.8.8-4.6-.3-3.3-.8-4.6-1.3-2.4-2.3-3.1-2.2-1.1-3.7-1.1-2.8.4-3.8,1.2-1.8,1.9-2.3,3.2-.8,2.8-.8,4.5.3,3.2.8,4.5,1.3,2.3,2.3,3,2.3,1.1,3.8,1.1Z"/>
      <path class="cls-5" d="M64.9,48.8v-26.2h5v4.2h.3c.5-1.4,1.3-2.6,2.5-3.4s2.6-1.2,4.1-1.2.7,0,1.1,0,.8,0,1.1.1v4.9c-.2,0-.5-.1-1.1-.2s-1.1,0-1.6,0c-1.2,0-2.3.2-3.2.8s-1.7,1.2-2.2,2.1-.8,1.9-.8,3.1v15.9h-5.2Z"/>
      <path class="cls-5" d="M90.6,49.4c-1.7,0-3.2-.3-4.5-.9s-2.4-1.5-3.2-2.7-1.2-2.6-1.2-4.4.3-2.7.9-3.7,1.3-1.7,2.3-2.3,2.1-1,3.3-1.3,2.4-.5,3.6-.6c1.5-.2,2.8-.3,3.8-.5s1.7-.3,2.1-.6.7-.7.7-1.3h0c0-1.1-.2-2-.6-2.6s-.9-1.2-1.7-1.6-1.7-.6-2.8-.6-2.1.2-2.9.5-1.5.8-2,1.3-.9,1.1-1.1,1.7l-4.9-1.3c.6-1.6,1.4-2.8,2.6-3.8s2.4-1.6,3.8-2.1,2.9-.7,4.5-.7,2.2.1,3.4.4,2.3.7,3.4,1.4,1.9,1.6,2.6,2.8,1,2.7,1,4.6v17.4h-5v-3.6h-.3c-.3.7-.9,1.3-1.5,2s-1.5,1.2-2.5,1.6-2.2.6-3.7.6ZM99.7,13.7v3.7h-13.2v-3.7h13.2ZM91.7,45.3c1.4,0,2.6-.3,3.6-.8s1.8-1.3,2.3-2.2.8-1.9.8-2.9v-3.4c-.2.2-.5.4-1.1.5s-1.1.3-1.8.4-1.3.2-1.9.3-1.1.1-1.5.2c-1,.1-1.9.3-2.7.6s-1.4.7-1.9,1.3-.7,1.3-.7,2.2.2,1.5.6,2.1,1,1,1.7,1.3,1.6.4,2.6.4Z"/>
      <path class="cls-5" d="M110.5,48.8v-26.2h4.9v6.1c.1,0-.3,0-.3,0,.4-1.5,1-2.7,1.7-3.7s1.7-1.7,2.7-2.1,2.1-.7,3.3-.7c1.9,0,3.4.6,4.6,1.8s2,2.8,2.4,4.9h-.7c.3-1.4.9-2.7,1.8-3.7s1.9-1.8,3.1-2.3,2.5-.8,3.8-.8,2.9.3,4.2,1,2.3,1.7,3,3,1.1,3,1.1,5v17.7h-5.2v-17.2c0-1.8-.5-3-1.5-3.8s-2.1-1.2-3.5-1.2-2,.2-2.8.7-1.4,1.1-1.8,1.9-.6,1.7-.6,2.8v16.8h-5.1v-17.5c0-1.4-.4-2.5-1.3-3.4s-2-1.3-3.4-1.3-1.8.2-2.7.7-1.5,1.1-2,2-.7,1.9-.7,3.2v16.3h-5.2Z"/>
      <path class="cls-5" d="M160.5,49.4c-1.7,0-3.2-.3-4.5-.9s-2.4-1.5-3.2-2.7-1.2-2.6-1.2-4.4.3-2.7.9-3.7,1.3-1.7,2.3-2.3,2.1-1,3.3-1.3,2.4-.5,3.6-.6c1.5-.2,2.8-.3,3.8-.5s1.7-.3,2.1-.6.7-.7.7-1.3h0c0-1.1-.2-2-.6-2.6s-.9-1.2-1.7-1.6-1.7-.6-2.8-.6-2.1.2-2.9.5-1.5.8-2,1.3-.9,1.1-1.1,1.7l-4.9-1.3c.6-1.6,1.4-2.8,2.6-3.8s2.4-1.6,3.8-2.1,2.9-.7,4.5-.7,2.2.1,3.4.4,2.3.7,3.4,1.4,1.9,1.6,2.6,2.8,1,2.7,1,4.6v17.4h-5v-3.6h-.3c-.3.7-.9,1.3-1.5,2s-1.5,1.2-2.5,1.6-2.2.6-3.7.6ZM161.6,45.3c1.4,0,2.6-.3,3.6-.8s1.8-1.3,2.3-2.2.8-1.9.8-2.9v-3.4c-.2.2-.5.4-1.1.5s-1.1.3-1.8.4-1.3.2-1.9.3-1.1.1-1.5.2c-1,.1-1.9.3-2.7.6s-1.4.7-1.9,1.3-.7,1.3-.7,2.2.2,1.5.6,2.1,1,1,1.7,1.3,1.6.4,2.6.4Z"/>
      <path class="cls-5" d="M191.6,22.6v4.2h-14.2v-4.2h14.2ZM181.2,16.4h5.2v25.4c0,1,.2,1.8.7,2.3s1.2.7,2.2.7.6,0,1.1,0,.8-.1,1.1-.2l.9,4.1c-.5.2-1.1.3-1.8.4s-1.2.1-1.9.1c-2.4,0-4.2-.6-5.5-1.8s-2-2.9-2-5.2v-25.8Z"/>
      <path class="cls-5" d="M196.7,48.8v-26.2h5v4.2h.3c.5-1.4,1.3-2.6,2.5-3.4s2.6-1.2,4.1-1.2.7,0,1.1,0,.8,0,1.1.1v4.9c-.2,0-.5-.1-1.1-.2s-1.1,0-1.6,0c-1.2,0-2.3.2-3.2.8s-1.7,1.2-2.2,2.1-.8,1.9-.8,3.1v15.9h-5.2Z"/>
      <path class="cls-3" d="M214.7,55.4v-3.6h5.3V15.4h-5.3v-3.6h9.3v43.6h-9.3Z"/>
    </g>
  </g>
  <g id="black-purple">
    <g>
      <path class="cls-4" d="M19.5,55.4V11.8h9.3v3.6h-5.3v36.4h5.3v3.6h-9.3Z"/>
      <path class="cls-5" d="M46.1,59.2c-2,0-3.8-.3-5.2-.8s-2.7-1.2-3.7-2.1-1.7-1.8-2.2-2.9l4.3-2c.3.5.7,1,1.3,1.6s1.2,1,2.1,1.4,2,.6,3.4.6c2,0,3.6-.5,4.9-1.4s1.9-2.4,1.9-4.4v-5.1h-.4c-.3.6-.7,1.2-1.3,1.9s-1.3,1.3-2.3,1.7-2.3.7-3.9.7-3.9-.5-5.6-1.5-3-2.4-3.9-4.3-1.5-4.2-1.5-7,.5-5.2,1.4-7.2,2.3-3.5,3.9-4.6,3.5-1.6,5.6-1.6,2.9.3,3.9.8,1.8,1.2,2.4,1.9,1,1.4,1.3,1.9h.4v-4.3h5v26.6c0,2.3-.5,4.2-1.6,5.7s-2.5,2.6-4.2,3.3-3.8,1.1-6.1,1.1ZM46.1,44.1c1.5,0,2.7-.3,3.7-1s1.8-1.7,2.3-3,.8-2.8.8-4.6-.3-3.3-.8-4.6-1.3-2.4-2.3-3.1-2.2-1.1-3.7-1.1-2.8.4-3.8,1.2-1.8,1.9-2.3,3.2-.8,2.8-.8,4.5.3,3.2.8,4.5,1.3,2.3,2.3,3,2.3,1.1,3.8,1.1Z"/>
      <path class="cls-5" d="M64.9,48.8v-26.2h5v4.2h.3c.5-1.4,1.3-2.6,2.5-3.4s2.6-1.2,4.1-1.2.7,0,1.1,0,.8,0,1.1.1v4.9c-.2,0-.5-.1-1.1-.2s-1.1,0-1.6,0c-1.2,0-2.3.2-3.2.8s-1.7,1.2-2.2,2.1-.8,1.9-.8,3.1v15.9h-5.2Z"/>
      <path class="cls-5" d="M90.6,49.4c-1.7,0-3.2-.3-4.5-.9s-2.4-1.5-3.2-2.7-1.2-2.6-1.2-4.4.3-2.7.9-3.7,1.3-1.7,2.3-2.3,2.1-1,3.3-1.3,2.4-.5,3.6-.6c1.5-.2,2.8-.3,3.8-.5s1.7-.3,2.1-.6.7-.7.7-1.3h0c0-1.1-.2-2-.6-2.6s-.9-1.2-1.7-1.6-1.7-.6-2.8-.6-2.1.2-2.9.5-1.5.8-2,1.3-.9,1.1-1.1,1.7l-4.9-1.3c.6-1.6,1.4-2.8,2.6-3.8s2.4-1.6,3.8-2.1,2.9-.7,4.5-.7,2.2.1,3.4.4,2.3.7,3.4,1.4,1.9,1.6,2.6,2.8,1,2.7,1,4.6v17.4h-5v-3.6h-.3c-.3.7-.9,1.3-1.5,2s-1.5,1.2-2.5,1.6-2.2.6-3.7.6ZM99.7,13.7v3.7h-13.2v-3.7h13.2ZM91.7,45.3c1.4,0,2.6-.3,3.6-.8s1.8-1.3,2.3-2.2.8-1.9.8-2.9v-3.4c-.2.2-.5.4-1.1.5s-1.1.3-1.8.4-1.3.2-1.9.3-1.1.1-1.5.2c-1,.1-1.9.3-2.7.6s-1.4.7-1.9,1.3-.7,1.3-.7,2.2.2,1.5.6,2.1,1,1,1.7,1.3,1.6.4,2.6.4Z"/>
      <path class="cls-5" d="M110.5,48.8v-26.2h4.9v6.1c.1,0-.3,0-.3,0,.4-1.5,1-2.7,1.7-3.7s1.7-1.7,2.7-2.1,2.1-.7,3.3-.7c1.9,0,3.4.6,4.6,1.8s2,2.8,2.4,4.9h-.7c.3-1.4.9-2.7,1.8-3.7s1.9-1.8,3.1-2.3,2.5-.8,3.8-.8,2.9.3,4.2,1,2.3,1.7,3,3,1.1,3,1.1,5v17.7h-5.2v-17.2c0-1.8-.5-3-1.5-3.8s-2.1-1.2-3.5-1.2-2,.2-2.8.7-1.4,1.1-1.8,1.9-.6,1.7-.6,2.8v16.8h-5.1v-17.5c0-1.4-.4-2.5-1.3-3.4s-2-1.3-3.4-1.3-1.8.2-2.7.7-1.5,1.1-2,2-.7,1.9-.7,3.2v16.3h-5.2Z"/>
      <path class="cls-5" d="M160.5,49.4c-1.7,0-3.2-.3-4.5-.9s-2.4-1.5-3.2-2.7-1.2-2.6-1.2-4.4.3-2.7.9-3.7,1.3-1.7,2.3-2.3,2.1-1,3.3-1.3,2.4-.5,3.6-.6c1.5-.2,2.8-.3,3.8-.5s1.7-.3,2.1-.6.7-.7.7-1.3h0c0-1.1-.2-2-.6-2.6s-.9-1.2-1.7-1.6-1.7-.6-2.8-.6-2.1.2-2.9.5-1.5.8-2,1.3-.9,1.1-1.1,1.7l-4.9-1.3c.6-1.6,1.4-2.8,2.6-3.8s2.4-1.6,3.8-2.1,2.9-.7,4.5-.7,2.2.1,3.4.4,2.3.7,3.4,1.4,1.9,1.6,2.6,2.8,1,2.7,1,4.6v17.4h-5v-3.6h-.3c-.3.7-.9,1.3-1.5,2s-1.5,1.2-2.5,1.6-2.2.6-3.7.6ZM161.6,45.3c1.4,0,2.6-.3,3.6-.8s1.8-1.3,2.3-2.2.8-1.9.8-2.9v-3.4c-.2.2-.5.4-1.1.5s-1.1.3-1.8.4-1.3.2-1.9.3-1.1.1-1.5.2c-1,.1-1.9.3-2.7.6s-1.4.7-1.9,1.3-.7,1.3-.7,2.2.2,1.5.6,2.1,1,1,1.7,1.3,1.6.4,2.6.4Z"/>
      <path class="cls-5" d="M191.6,22.6v4.2h-14.2v-4.2h14.2ZM181.2,16.4h5.2v25.4c0,1,.2,1.8.7,2.3s1.2.7,2.2.7.6,0,1.1,0,.8-.1,1.1-.2l.9,4.1c-.5.2-1.1.3-1.8.4s-1.2.1-1.9.1c-2.4,0-4.2-.6-5.5-1.8s-2-2.9-2-5.2v-25.8Z"/>
      <path class="cls-5" d="M196.7,48.8v-26.2h5v4.2h.3c.5-1.4,1.3-2.6,2.5-3.4s2.6-1.2,4.1-1.2.7,0,1.1,0,.8,0,1.1.1v4.9c-.2,0-.5-.1-1.1-.2s-1.1,0-1.6,0c-1.2,0-2.3.2-3.2.8s-1.7,1.2-2.2,2.1-.8,1.9-.8,3.1v15.9h-5.2Z"/>
      <path class="cls-4" d="M214.7,55.4v-3.6h5.3V15.4h-5.3v-3.6h9.3v43.6h-9.3Z"/>
    </g>
  </g>
</svg>